<svg xmlns="http://www.w3.org/2000/svg" viewBox="0 0 512 512" width="24" height="24" fill="currentColor">
  <path d="M432 320c-13.3 0-24 10.7-24 24v88c0 13.3-10.7 24-24 24H88c-13.3 0-24-10.7-24-24V128c0-13.3 10.7-24 24-24h88c13.3 0 24-10.7 24-24s-10.7-24-24-24H88C39.4 56 0 95.4 0 144v288c0 48.6 39.4 88 88 88h296c48.6 0 88-39.4 88-88v-88c0-13.3-10.7-24-24-24zm56-320H320c-17.7 0-32 14.3-32 32s14.3 32 32 32h73.4L201 286.6c-12.5 12.5-12.5 32.8 0 45.3s32.8 12.5 45.3 0L440 109.3V183c0 17.7 14.3 32 32 32s32-14.3 32-32V32c0-17.7-14.3-32-32-32z"/>
</svg>
