<svg xmlns="http://www.w3.org/2000/svg" viewBox="0 0 32 32"><defs><style>.cls-1{fill:#231f20;}</style></defs><g id="discussion"><path class="cls-1" d="M14.73,16.29l-.16-.12a.56.56,0,0,0-.17-.09.6.6,0,0,0-.19-.06,1,1,0,0,0-.9.27,1.15,1.15,0,0,0-.21.33A1,1,0,0,0,13,17a1.05,1.05,0,0,0,.29.71.93.93,0,0,0,.33.21A1,1,0,0,0,14,18l.19,0a.6.6,0,0,0,.19-.06.56.56,0,0,0,.17-.09l.16-.12A1.05,1.05,0,0,0,15,17a1,1,0,0,0-.08-.38A1.15,1.15,0,0,0,14.73,16.29Z"/><path class="cls-1" d="M10,16a1,1,0,0,0,0,2h0a1,1,0,0,0,1-1A1,1,0,0,0,10,16Z"/><path class="cls-1" d="M6.7,16.27a1,1,0,0,0-1.42,0,.93.93,0,0,0-.21.33A1,1,0,0,0,5,17a1,1,0,0,0,1,1,1,1,0,0,0,.38-.08,1,1,0,0,0,.33-.21A1.05,1.05,0,0,0,7,17a.84.84,0,0,0-.08-.38A.93.93,0,0,0,6.7,16.27Z"/><path class="cls-1" d="M27,5H17a3,3,0,0,0-3,2.84,1,1,0,0,0,.33.92A1,1,0,0,0,16,8a1,1,0,0,1,1-1H27a1,1,0,0,1,1,1v6a1,1,0,0,1-.3.72A.92.92,0,0,1,27,15H24a1,1,0,0,0-1,1l0,1.64-1.31-1.32a1,1,0,0,0-1.42,1.42l3,3A1,1,0,0,0,24,21a1,1,0,0,0,.38-.07A1,1,0,0,0,25,20l0-3h2a3,3,0,0,0,3-3V8A3,3,0,0,0,27,5Z"/><path class="cls-1" d="M15,11H5a3,3,0,0,0-3,3v6a2.93,2.93,0,0,0,.89,2.13A3,3,0,0,0,5,23H7l0,3a1,1,0,0,0,.62.91A.84.84,0,0,0,8,27a1,1,0,0,0,.7-.29L12.47,23H15a3,3,0,0,0,3-3V14A3,3,0,0,0,15,11Zm1,9a1,1,0,0,1-1,1H12.06a1,1,0,0,0-.7.29L9,23.63,9,22a1,1,0,0,0-1-1H5a1,1,0,0,1-.71-.29A1,1,0,0,1,4,20V14a1,1,0,0,1,1-1H15a1,1,0,0,1,1,1Z"/></g></svg>